<svg width="512" height="512" viewBox="0 0 512 512" fill="none" xmlns="http://www.w3.org/2000/svg">
  <rect width="512" height="512" rx="112" fill="#07111F"/>
  <path d="M256 58L392 112V224C392 318 334 400 256 454C178 400 120 318 120 224V112L256 58Z" fill="url(#g)"/>
  <path d="M315 177C296 158 268 149 236 153C203 157 178 177 178 207C178 239 203 254 242 263L263 268C284 273 295 280 295 293C295 309 280 319 256 319C231 319 212 308 198 287L166 309C184 339 214 354 255 354C300 354 333 331 333 291C333 256 307 241 269 232L246 227C225 222 216 216 216 204C216 191 229 183 249 183C270 183 286 190 299 204L315 177Z" fill="#06101D"/>
  <path d="M258 111V145M258 366V403" stroke="#BBF7D0" stroke-width="18" stroke-linecap="round" opacity=".75"/>
  <defs><linearGradient id="g" x1="120" y1="58" x2="399" y2="445" gradientUnits="userSpaceOnUse"><stop stop-color="#22C55E"/><stop offset="1" stop-color="#14B8A6"/></linearGradient></defs>
</svg>
